<svg width="16" height="16" viewBox="0 0 16 16" fill="none" xmlns="http://www.w3.org/2000/svg">
<path d="M8 0C9.09162 0 10.0273 0.389864 10.807 1.16959C11.5867 1.94932 11.9766 2.89279 11.9766 4C11.9766 5.10721 11.5867 6.05068 10.807 6.83041C10.0273 7.61014 9.09162 8 8 8C6.90838 8 5.97271 7.61014 5.19298 6.83041C4.41326 6.05068 4.02339 5.10721 4.02339 4C4.02339 2.89279 4.41326 1.94932 5.19298 1.16959C5.97271 0.389864 6.90838 0 8 0ZM8 10.0117C9.4347 10.0117 10.768 10.191 12 10.5497C13.232 10.9084 14.2066 11.3918 14.924 12C15.6413 12.6082 16 13.271 16 13.9883V16H0V13.9883C0 13.271 0.358674 12.6082 1.07602 12C1.79337 11.3918 2.76803 10.9084 4 10.5497C5.23197 10.191 6.5653 10.0117 8 10.0117Z" fill="#F5F5F5"/>
</svg>
