<svg width="16" height="16" viewBox="0 0 16 16" fill="none" xmlns="http://www.w3.org/2000/svg">
<path d="M5.96247 -5.1409e-07C7.02055 -5.1409e-07 8.00715 0.264521 8.92225 0.793565C9.83736 1.32261 10.5594 2.04468 11.0885 2.95979C11.6175 3.87489 11.882 4.87578 11.882 5.96247C11.882 7.42091 11.4102 8.70777 10.4665 9.82306L10.7239 10.0804H11.4531L16 14.6273L14.6273 16L10.0804 11.4531V10.7239L9.82306 10.4665C8.70778 11.4102 7.42091 11.882 5.96247 11.882C4.87578 11.882 3.87489 11.6175 2.95979 11.0885C2.04468 10.5594 1.32261 9.83735 0.793566 8.92225C0.264522 8.00715 0 7.0134 0 5.94102C0 4.86863 0.264522 3.87489 0.793566 2.95979C1.32261 2.04468 2.04468 1.32261 2.95979 0.793565C3.87489 0.264521 4.87578 -5.1409e-07 5.96247 -5.1409e-07ZM5.96247 1.8445C4.81859 1.8445 3.84629 2.24486 3.04558 3.04558C2.24486 3.84629 1.8445 4.81859 1.8445 5.96247C1.8445 7.10634 2.24486 8.07864 3.04558 8.87936C3.84629 9.68007 4.81859 10.0804 5.96247 10.0804C7.10635 10.0804 8.07864 9.68007 8.87936 8.87936C9.68007 8.07864 10.0804 7.10634 10.0804 5.96247C10.0804 4.81859 9.68007 3.84629 8.87936 3.04558C8.07864 2.24486 7.10635 1.8445 5.96247 1.8445Z" fill="#F5F5F5"/>
</svg>
