<svg width="16" height="16" viewBox="0 0 16 16" fill="none" xmlns="http://www.w3.org/2000/svg">
<path d="M8 10.8169C7.2036 10.8169 6.5228 10.5415 5.95761 9.99061C5.39242 9.43975 5.10983 8.77621 5.10983 8C5.10983 7.22379 5.39242 6.56025 5.95761 6.00939C6.5228 5.45853 7.2036 5.1831 8 5.1831C8.7964 5.1831 9.4772 5.45853 10.0424 6.00939C10.6076 6.56025 10.8902 7.22379 10.8902 8C10.8902 8.77621 10.6076 9.43975 10.0424 9.99061C9.4772 10.5415 8.7964 10.8169 8 10.8169ZM14.1272 8.78873C14.1529 8.48826 14.1657 8.22535 14.1657 8C14.1657 7.77465 14.1529 7.51174 14.1272 7.21127L15.8613 5.89671C15.9383 5.8216 15.9833 5.74022 15.9961 5.65258C16.009 5.56495 15.9897 5.47105 15.9383 5.37089L14.2813 2.59155C14.2556 2.51643 14.1914 2.46009 14.0886 2.42254C13.9859 2.38498 13.8831 2.39124 13.7803 2.44131L11.738 3.23005C11.2755 2.8795 10.8131 2.61659 10.3507 2.44131L10.0424 0.338028C10.0424 0.237871 10.0039 0.156494 9.92678 0.0938965C9.84971 0.0312987 9.75979 -2.30968e-07 9.65703 -2.30968e-07H6.34297C6.24021 -2.30968e-07 6.15029 0.0312987 6.07322 0.0938965C5.99615 0.156494 5.95761 0.237871 5.95761 0.338028L5.64933 2.44131C5.1869 2.61659 4.72447 2.8795 4.26204 3.23005L2.21965 2.44131C2.11689 2.39124 2.01413 2.38498 1.91137 2.42254C1.80861 2.46009 1.74438 2.51643 1.71869 2.59155L0.061657 5.37089C0.0102762 5.47105 -0.00899165 5.56495 0.00385356 5.65258C0.0166988 5.74022 0.061657 5.8216 0.138728 5.89671L1.87283 7.21127C1.84714 7.51174 1.8343 7.77465 1.8343 8C1.8343 8.22535 1.84714 8.48826 1.87283 8.78873L0.138728 10.1033C0.061657 10.1784 0.0166988 10.2598 0.00385356 10.3474C-0.00899165 10.4351 0.0102762 10.529 0.061657 10.6291L1.71869 13.4085C1.74438 13.4836 1.80861 13.5399 1.91137 13.5775C2.01413 13.615 2.11689 13.6088 2.21965 13.5587L4.26204 12.77C4.72447 13.1205 5.1869 13.3834 5.64933 13.5587L5.95761 15.662C5.95761 15.7621 5.99615 15.8435 6.07322 15.9061C6.15029 15.9687 6.24021 16 6.34297 16H9.65703C9.75979 16 9.84971 15.9687 9.92678 15.9061C10.0039 15.8435 10.0424 15.7621 10.0424 15.662L10.3507 13.5587C10.8388 13.3584 11.3012 13.0955 11.738 12.77L13.7803 13.5587C13.8831 13.6088 13.9859 13.615 14.0886 13.5775C14.1914 13.5399 14.2556 13.4836 14.2813 13.4085L15.9383 10.6291C15.9897 10.529 16.009 10.4351 15.9961 10.3474C15.9833 10.2598 15.9383 10.1784 15.8613 10.1033L14.1272 8.78873Z" fill="#F5F5F5"/>
</svg>
