<svg width="14" height="16" viewBox="0 0 14 16" fill="none" xmlns="http://www.w3.org/2000/svg">
<path fill-rule="evenodd" clip-rule="evenodd" d="M10.8946 0.0201827C10.0006 0.18058 9.20935 0.813483 8.87911 1.63352C8.68512 2.11456 8.63145 2.64088 8.72433 3.15128C8.75435 3.31769 8.7737 3.4567 8.76769 3.46138C8.76169 3.46606 7.80633 4.05485 6.64481 4.76996C5.41591 5.5265 4.51793 6.06049 4.49658 6.04713C4.42754 5.99694 4.36013 5.94456 4.29443 5.89007C3.94618 5.6067 3.4298 5.40487 2.92476 5.3534C1.47437 5.20571 0.198774 6.2396 0.0186422 7.70791C-0.14014 9.00245 0.731829 10.2656 2.00676 10.5884C2.53114 10.7207 2.99815 10.7013 3.5252 10.5249C3.80808 10.4367 4.07162 10.2954 4.30177 10.1085C4.38917 10.0384 4.4759 9.97018 4.49591 9.95882C4.5266 9.93944 8.62426 12.4336 8.735 12.5392C8.76903 12.5706 8.76703 12.6268 8.72366 12.8553C8.66162 13.1842 8.67629 13.7141 8.75502 14.0042C9.02121 14.9839 9.71238 15.6723 10.7064 15.9477C10.8579 15.9891 11.016 16.0018 11.3716 15.9998C11.7932 15.9978 11.8646 15.9891 12.1035 15.9116C12.8513 15.6683 13.4218 15.1784 13.7407 14.5054C13.9241 14.1171 13.9735 13.9133 13.9935 13.4542C14.0082 13.114 14.0008 13.0144 13.9415 12.7571C13.803 12.1673 13.472 11.6406 13.0008 11.2607C12.7506 11.0636 12.317 10.8423 12.0254 10.7642C11.7692 10.6953 11.2061 10.6686 10.9266 10.7127C10.5076 10.7782 10.0593 10.97 9.75308 11.2146C9.68253 11.2729 9.60808 11.3263 9.53025 11.3743C9.47087 11.4057 9.2307 11.2661 7.35066 10.1072C6.18915 9.39075 5.23445 8.80195 5.22978 8.79794C5.23843 8.72308 5.25338 8.64907 5.27448 8.57673C5.34586 8.28801 5.34586 7.71727 5.27448 7.42855C5.25342 7.35642 5.23846 7.28265 5.22978 7.208C6.6439 6.33196 8.06273 5.46357 9.48622 4.60288C9.5009 4.60288 9.58095 4.66035 9.66368 4.72986C10.4503 5.38749 11.6318 5.50846 12.5611 5.02659C13.0672 4.77372 13.4753 4.35979 13.7213 3.84968C13.9435 3.40658 14.0155 3.06105 13.9935 2.55112C13.9735 2.09265 13.9248 1.88882 13.7407 1.49985C13.4031 0.784745 12.7833 0.278824 11.9794 0.0609505C11.7692 0.00414298 11.1207 -0.0205851 10.8946 0.0201827ZM11.8986 1.44705C12.1708 1.5747 12.4177 1.82265 12.5485 2.09934C12.6419 2.29716 12.6485 2.33258 12.6485 2.65405C12.6485 2.9735 12.6419 3.01093 12.5505 3.20341C12.3196 3.69128 11.8826 3.98 11.3683 3.98267C10.8179 3.98601 10.3682 3.70131 10.1294 3.1994C10.04 3.01093 10.0333 2.97284 10.0333 2.65338C10.0333 2.32857 10.0386 2.29783 10.134 2.10468C10.2628 1.84203 10.4316 1.65223 10.6551 1.5179C10.9066 1.36619 11.0734 1.32676 11.4076 1.33945C11.6465 1.34881 11.7245 1.36552 11.8986 1.44705ZM2.98147 6.71077C3.50118 6.82906 3.88947 7.25345 3.98287 7.80548C4.01533 8.02182 3.99401 8.24284 3.92081 8.44894C3.84761 8.65505 3.72479 8.83989 3.56323 8.98708C3.3904 9.14596 3.17851 9.25594 2.94927 9.30577C2.72003 9.35559 2.48169 9.34347 2.25867 9.27063C2.03565 9.19779 1.83597 9.06686 1.6801 8.89126C1.52423 8.71566 1.41777 8.5017 1.37163 8.27131C1.32693 8.06413 1.32493 7.99729 1.35695 7.80548C1.44835 7.26481 1.81662 6.85179 2.32566 6.71879C2.58385 6.65062 2.71328 6.64928 2.98147 6.71077ZM11.9227 12.1589C12.2082 12.3 12.4117 12.5078 12.5491 12.7985C12.6419 12.995 12.6485 13.0304 12.6485 13.3512C12.6485 13.6707 12.6419 13.7088 12.5518 13.8973C12.4245 14.18 12.202 14.409 11.9233 14.5442C11.6925 14.6585 11.6772 14.6611 11.3422 14.6611C11.0193 14.6611 10.9853 14.6551 10.7872 14.5616C10.5046 14.4239 10.2765 14.1951 10.1394 13.912C10.0386 13.7048 10.0333 13.678 10.0333 13.3512C10.0333 13.0318 10.04 12.9943 10.13 12.8059C10.2065 12.6355 10.3176 12.4829 10.4562 12.3579C10.5949 12.2329 10.758 12.1383 10.9353 12.0801C11.054 12.038 11.1634 12.0266 11.3909 12.034C11.6631 12.0427 11.7112 12.054 11.9227 12.1589Z" fill="#9E9E9E"/>
</svg>
